<?xml version="1.0" encoding="UTF-8"?>
<svg xmlns="http://www.w3.org/2000/svg" viewBox="0 0 438.85 178.71">
  <defs>
    <style>
      .cls-1 {
        fill: #fff;
      }

      .cls-1, .cls-2 {
        stroke-width: 0px;
      }

      .cls-2 {
        fill: #e5231b;
      }
    </style>
  </defs>
  <g id="Logo">
    <rect class="cls-1" x="199.1" y=".17" width="2.42" height="178.54"/>
    <g>
      <g>
        <path class="cls-1" d="m242.65,19.33V.18h-20.56c0,6.66.51,13.12,1.43,19.16h19.13Z"/>
        <path class="cls-1" d="m242.65,25.37h-18.03c3.45,16.36,10.13,28.55,18.03,31.09v-31.09Z"/>
      </g>
      <g>
        <path class="cls-1" d="m248.68,19.33V.18s20.56,0,20.56,0c0,6.66-.51,13.12-1.43,19.16h-19.13Z"/>
        <path class="cls-1" d="m248.68,25.37h18.03c-3.45,16.36-10.13,28.55-18.03,31.09v-31.09Z"/>
      </g>
    </g>
    <g>
      <path class="cls-1" d="m289.8,22.37V.18h13.41v3.85h-9.11v5.71h7.19v3.79h-7.19v8.85h-4.29Z"/>
      <path class="cls-1" d="m311.87,22.73c-2.21,0-3.93-.64-5.16-1.92-1.23-1.28-1.85-3.07-1.85-5.36v-7.96h4.14v8.02c0,1.14.25,2.02.75,2.63s1.21.92,2.12.92,1.61-.31,2.12-.92c.5-.61.75-1.49.75-2.63V7.49h4.14v7.96c0,2.29-.62,4.07-1.85,5.36-1.23,1.28-2.96,1.92-5.16,1.92Zm-3.61-17.52c-.75,0-1.35-.22-1.79-.67-.44-.44-.67-1.01-.67-1.7s.22-1.26.67-1.7c.44-.44,1.04-.67,1.79-.67s1.35.22,1.79.67c.44.44.67,1.01.67,1.7s-.22,1.26-.67,1.7c-.44.44-1.04.67-1.79.67Zm7.22,0c-.75,0-1.35-.22-1.79-.67s-.67-1.01-.67-1.7.22-1.26.67-1.7,1.04-.67,1.79-.67,1.35.22,1.79.67c.44.44.67,1.01.67,1.7s-.22,1.26-.67,1.7c-.44.44-1.04.67-1.79.67Z"/>
      <path class="cls-1" d="m322.53,22.37V7.49h3.76v2.69h.18c.33-.99.85-1.74,1.55-2.26.7-.52,1.56-.78,2.59-.78.59,0,1.11.12,1.54.36v4.14h-.18c-.26-.12-.54-.21-.86-.27-.32-.06-.61-.09-.89-.09-1.12,0-2,.4-2.62,1.18-.62.79-.93,1.86-.93,3.23v6.69h-4.14Z"/>
      <path class="cls-1" d="m351.88,22.37v-2.25h-.18c-.43.81-1.08,1.45-1.94,1.91-.86.46-1.83.7-2.92.7-1.32,0-2.48-.33-3.46-.98-.99-.65-1.76-1.56-2.31-2.74s-.83-2.54-.83-4.1.27-2.92.81-4.08c.54-1.16,1.31-2.07,2.31-2.72,1-.65,2.16-.98,3.48-.98,1.01,0,1.92.2,2.75.61.83.4,1.46.95,1.89,1.64h.21V.18h4.14v22.19h-3.96Zm-3.73-3.23c1.12,0,2.03-.39,2.71-1.17s1.02-1.8,1.02-3.06-.34-2.3-1.02-3.06c-.68-.76-1.58-1.14-2.71-1.14s-2.05.38-2.71,1.12c-.66.75-.99,1.79-.99,3.11s.33,2.3.99,3.06c.66.76,1.56,1.14,2.71,1.14Z"/>
      <path class="cls-1" d="m361.8,5.09c-.79,0-1.43-.24-1.92-.72s-.74-1.09-.74-1.82.25-1.36.74-1.83,1.13-.71,1.92-.71,1.46.24,1.94.71.72,1.08.72,1.83-.24,1.34-.72,1.82-1.13.72-1.94.72Zm-2.07,17.28V7.49h4.14v14.88h-4.14Z"/>
      <path class="cls-1" d="m374.7,22.73c-1.62,0-3.01-.32-4.19-.95s-2.08-1.53-2.71-2.69c-.63-1.16-.95-2.52-.95-4.08,0-1.64.33-3.04.99-4.22.66-1.17,1.57-2.08,2.74-2.71,1.16-.63,2.49-.95,3.96-.95,2.19,0,3.9.67,5.12,2.01,1.22,1.34,1.83,3.2,1.83,5.56v.92l-10.24,1.15c.28.91.77,1.55,1.48,1.92.71.38,1.58.56,2.6.56.97,0,1.93-.13,2.9-.38.97-.26,1.7-.54,2.19-.86h.21l-.59,3.55c-.55.3-1.32.56-2.31.8s-2,.36-3.05.36Zm-.24-12.28c-.93,0-1.69.28-2.29.84-.6.56-.97,1.41-1.11,2.53l6.33-.71c-.14-.93-.46-1.6-.98-2.03-.51-.42-1.17-.64-1.95-.64Z"/>
      <path class="cls-1" d="m295.03,56.2c-1.1,0-2.16-.15-3.17-.46s-2-.78-2.99-1.44l.59-3.82h.15c.95.71,1.89,1.21,2.83,1.49.94.29,1.8.43,2.59.43,2.29,0,3.43-.85,3.43-2.54,0-.59-.16-1.12-.49-1.6-.33-.47-.9-.94-1.73-1.39l-2.75-1.54c-1.58-.89-2.7-1.83-3.36-2.83-.66-1-.99-2.12-.99-3.39,0-1.91.64-3.42,1.92-4.53,1.28-1.1,3-1.66,5.15-1.66,1.95,0,3.77.48,5.44,1.45l-.59,3.67h-.15c-.63-.43-1.37-.76-2.22-.99-.85-.23-1.65-.34-2.4-.34-1.99,0-2.99.76-2.99,2.28,0,.55.17,1.06.52,1.51.34.45,1.02.96,2.03,1.51l2.43,1.33c1.52.83,2.62,1.74,3.31,2.74.69,1,1.04,2.19,1.04,3.57,0,2.05-.69,3.66-2.07,4.81s-3.23,1.73-5.53,1.73Z"/>
      <path class="cls-1" d="m313.5,55.66h-4.56c-.71-.99-1.25-2.12-1.61-3.39s-.55-2.72-.55-4.33v-3.7h-2.6v-3.46h2.6v-4.41h4.08v4.41h3.49l-.59,3.46h-2.9v3.37c0,1.68.23,3.14.7,4.38.46,1.24,1.11,2.4,1.94,3.46v.21Z"/>
      <path class="cls-1" d="m320.43,55.9c-1.44,0-2.58-.38-3.43-1.15-.85-.77-1.27-1.84-1.27-3.23s.49-2.51,1.48-3.31,2.32-1.29,4-1.45l4.14-.41v-.03c0-.81-.22-1.42-.67-1.83-.44-.41-1.26-.62-2.44-.62-.89,0-1.79.1-2.71.31-.92.21-1.65.45-2.21.73h-.18l.59-3.52c.63-.26,1.41-.48,2.34-.67.93-.19,1.9-.28,2.93-.28,2.23,0,3.87.52,4.91,1.57,1.04,1.05,1.57,2.56,1.57,4.56v4.73c0,.77.05,1.53.16,2.28.11.75.29,1.38.55,1.89v.21h-3.88c-.12-.3-.23-.67-.33-1.11-.1-.44-.16-.85-.18-1.23h-.18c-.38.73-1.03,1.34-1.95,1.83-.93.49-2.01.74-3.25.74Zm-.5-4.67c0,.43.14.8.43,1.09s.75.44,1.41.44c1.03,0,1.88-.3,2.56-.9.68-.6,1.02-1.4,1.02-2.38v-.36l-3.14.36c-.79.08-1.37.25-1.73.52s-.55.68-.55,1.23Z"/>
      <path class="cls-1" d="m344.1,55.66v-2.25h-.18c-.43.81-1.08,1.45-1.94,1.91-.86.46-1.83.7-2.92.7-1.32,0-2.48-.33-3.46-.98-.99-.65-1.76-1.56-2.31-2.74-.55-1.17-.83-2.54-.83-4.1s.27-2.92.81-4.08c.54-1.16,1.31-2.07,2.31-2.72s2.16-.98,3.48-.98c1.01,0,1.92.2,2.75.61s1.46.95,1.89,1.64h.21v-9.2h4.14v22.19h-3.97Zm-3.73-3.23c1.12,0,2.03-.39,2.71-1.17s1.02-1.8,1.02-3.06-.34-2.3-1.02-3.06c-.68-.76-1.58-1.14-2.71-1.14s-2.05.38-2.71,1.12c-.66.75-.99,1.79-.99,3.11s.33,2.3.99,3.06c.66.76,1.56,1.14,2.71,1.14Z"/>
      <path class="cls-1" d="m359.69,55.66h-4.56c-.71-.99-1.25-2.12-1.61-3.39-.37-1.27-.55-2.72-.55-4.33v-3.7h-2.6v-3.46h2.6v-4.41h4.08v4.41h3.49l-.59,3.46h-2.9v3.37c0,1.68.23,3.14.7,4.38.46,1.24,1.11,2.4,1.94,3.46v.21Z"/>
      <path class="cls-1" d="m378.49,55.66h-5.03c-.49-1.1-1.03-2.47-1.6-4.1s-1.12-3.44-1.66-5.43c-.53-1.99-1-4.07-1.39-6.23-.4-2.16-.67-4.31-.83-6.44h4.5c.16,1.97.42,4.02.78,6.16s.79,4.21,1.29,6.23,1.01,3.88,1.54,5.58h.21l4.5-15.03h3.31l4.5,15.03h.21c.53-1.7,1.04-3.56,1.51-5.58s.89-4.1,1.24-6.23c.35-2.13.61-4.18.77-6.16h4.44c-.16,2.13-.43,4.28-.83,6.44-.4,2.16-.86,4.24-1.39,6.23-.53,1.99-1.08,3.8-1.66,5.43s-1.1,2.99-1.6,4.1h-5.03l-3.76-12.49h-.21l-3.82,12.49Z"/>
      <path class="cls-1" d="m401.89,38.38c-.79,0-1.43-.24-1.92-.72s-.74-1.09-.74-1.82.25-1.36.74-1.83,1.13-.71,1.92-.71,1.46.24,1.94.71.72,1.08.72,1.83-.24,1.34-.72,1.82-1.13.72-1.94.72Zm-2.07,17.28v-14.88h4.14v14.88h-4.14Z"/>
      <path class="cls-1" d="m414.8,56.02c-1.62,0-3.01-.32-4.19-.95s-2.08-1.53-2.71-2.69c-.63-1.16-.95-2.52-.95-4.08,0-1.64.33-3.04.99-4.22.66-1.17,1.57-2.08,2.74-2.71,1.16-.63,2.49-.95,3.96-.95,2.19,0,3.9.67,5.12,2.01,1.22,1.34,1.83,3.2,1.83,5.56v.92l-10.24,1.15c.28.91.77,1.55,1.48,1.92.71.38,1.58.56,2.6.56.97,0,1.93-.13,2.9-.38.97-.26,1.7-.54,2.19-.86h.21l-.59,3.55c-.55.3-1.32.56-2.31.8s-2,.36-3.05.36Zm-.24-12.28c-.93,0-1.69.28-2.29.84-.6.56-.97,1.41-1.11,2.53l6.33-.71c-.14-.93-.46-1.6-.98-2.03-.51-.42-1.17-.64-1.95-.64Z"/>
      <path class="cls-1" d="m424.47,55.66v-14.88h3.76v2.51h.18c.38-.87.99-1.56,1.85-2.09.86-.52,1.86-.78,3-.78,1.74,0,3.1.58,4.1,1.73,1,1.15,1.49,2.76,1.49,4.81v8.7h-4.14v-8.17c0-2.33-.96-3.49-2.87-3.49-.97,0-1.75.34-2.34,1.04-.59.69-.89,1.61-.89,2.75v7.87h-4.14Z"/>
    </g>
  </g>
  <g id="Submarke_Logobereich" data-name="Submarke Logobereich">
    <rect class="cls-1" y=".17" width="178.54" height="178.54"/>
    <g>
      <path class="cls-2" d="m71.94,31.57c-2.63,0-4.68-.85-5.05-3.93h-2.83c.27,3.96,2.97,6.25,7.82,6.25,4.06,0,6.96-1.81,6.96-5.36,0-4.06-2.97-4.85-6.52-5.57-3.04-.61-4.74-.99-4.74-2.9,0-1.4,1.02-2.53,3.55-2.53s3.89,1.02,4.16,3.35h2.83c-.41-3.45-2.56-5.53-6.93-5.53-4.1,0-6.35,1.91-6.35,4.85,0,3.86,3.11,4.57,6.59,5.29,3.24.68,4.61,1.19,4.61,3.17,0,1.64-1.19,2.9-4.1,2.9Z"/>
      <path class="cls-2" d="m28.31,26.62c-.44,1.47-.99,3.79-.99,3.79h-.07s-.48-2.29-.85-3.72l-2.87-10.96h-2.9l-2.97,10.96c-.38,1.4-.89,3.72-.89,3.72h-.07s-.55-2.32-.96-3.79l-3.11-10.89h-2.97l5.6,17.65h2.87l2.97-10.69c.41-1.47.89-3.69.89-3.69h.07s.44,2.22.85,3.69l2.94,10.69h2.83l5.77-17.65h-2.87l-3.28,10.89Z"/>
      <rect class="cls-2" x="36.47" y="15.73" width="2.76" height="17.65"/>
      <rect class="cls-2" x="36.47" y="8.97" width="2.76" height="3.41"/>
      <path class="cls-2" d="m45.82,18.67h-.07v-2.94h-2.76v17.65h2.76v-9.8c0-3.31,2.39-5.36,5.12-5.36.55,0,.82.03,1.23.17h.1v-2.66c-.34-.14-.61-.2-1.13-.2-2.36,0-4.2,1.43-5.26,3.14Z"/>
      <path class="cls-2" d="m62.24,33.24v-2.39h-.1c-.31.1-.92.24-1.47.24-1.13,0-1.77-.41-1.77-1.64v-11.47h3.41v-2.25h-3.41v-5.56h-2.77v5.56h-2.56v2.25h2.56v12.08c0,2.49,1.64,3.41,3.89,3.41.82,0,1.57-.1,2.22-.24Z"/>
      <path class="cls-2" d="m89.38,33.86c4.4,0,7.17-2.46,7.54-6.69h-2.73c-.24,2.73-1.95,4.37-4.81,4.37-3.76,0-5.7-3.07-5.7-6.96s1.95-7,5.7-7c2.66,0,4.34,1.47,4.74,3.86h2.8c-.61-3.75-3.38-6.15-7.54-6.15-5.26,0-8.53,4.16-8.53,9.29s3.28,9.29,8.53,9.29Z"/>
      <path class="cls-2" d="m99.56,8.97h2.76v9.08h.07c1.26-1.67,3.04-2.73,5.6-2.73,3.69,0,5.94,2.01,5.94,5.67v12.39h-2.76v-12.15c0-2.29-1.5-3.58-3.99-3.58-2.8,0-4.85,1.98-4.85,4.88v10.86h-2.76V8.97Z"/>
      <path class="cls-2" d="m132.84,31.26c-1.54.34-1.88-.44-1.88-1.88v-8.4c0-4.2-2.76-5.6-6.52-5.6-4.68,0-6.93,2.56-7.03,5.97h2.66c.1-2.66,1.54-3.89,4.4-3.89,2.53,0,3.96,1.13,3.96,3.11s-1.74,2.15-4.23,2.53c-4.4.68-7.68,1.54-7.68,5.7,0,3.35,2.63,4.92,5.97,4.92,3,0,4.81-1.43,5.87-2.8h.03c.27,1.81,1.23,2.63,3.04,2.63.72,0,1.16-.14,1.5-.27v-2.01h-.1Zm-4.37-4.4c0,2.05-1.67,4.74-5.36,4.74-1.81,0-3.65-.51-3.65-2.87,0-2.59,2.22-3.07,4.98-3.59,1.5-.27,3.11-.72,4.03-1.3v3Z"/>
      <path class="cls-2" d="m136.15,33.38h2.77v-15.4h3.28v-2.25h-3.28v-2.7c0-1.43.65-1.88,2.42-1.88.27,0,.41,0,.89.03v-2.36c-.38-.03-.82-.07-1.4-.07-2.94,0-4.68,1.09-4.68,4.13v2.83h-2.42v2.25h2.42v15.4Z"/>
      <path class="cls-2" d="m146.02,30.07c0,2.49,1.64,3.41,3.89,3.41.82,0,1.57-.1,2.22-.24v-2.39h-.1c-.31.1-.92.24-1.47.24-1.13,0-1.78-.41-1.78-1.64v-11.47h3.41v-2.25h-3.41v-5.56h-2.76v5.56h-2.56v2.25h2.56v12.08Z"/>
      <path class="cls-2" d="m161.82,31.57c-2.63,0-4.68-.85-5.05-3.93h-2.83c.27,3.96,2.97,6.25,7.82,6.25,4.06,0,6.96-1.81,6.96-5.36,0-4.06-2.97-4.85-6.52-5.57-3.04-.61-4.74-.99-4.74-2.9,0-1.4,1.02-2.53,3.55-2.53s3.89,1.02,4.16,3.35h2.83c-.41-3.45-2.56-5.53-6.93-5.53-4.1,0-6.35,1.91-6.35,4.85,0,3.86,3.11,4.57,6.59,5.29,3.24.68,4.61,1.19,4.61,3.17,0,1.64-1.2,2.9-4.1,2.9Z"/>
      <path class="cls-2" d="m72.93,64.31v-8.4c0-4.2-2.77-5.6-6.52-5.6-4.68,0-6.93,2.56-7.03,5.97h2.66c.1-2.66,1.54-3.89,4.4-3.89,2.53,0,3.96,1.13,3.96,3.11s-1.74,2.15-4.23,2.53c-4.4.68-7.68,1.54-7.68,5.7,0,3.34,2.63,4.92,5.97,4.92,3,0,4.81-1.43,5.87-2.8h.03c.27,1.81,1.23,2.63,3.04,2.63.72,0,1.16-.14,1.5-.27v-2.01h-.1c-1.54.34-1.88-.44-1.88-1.88Zm-2.49-2.53c0,2.05-1.67,4.74-5.36,4.74-1.81,0-3.65-.51-3.65-2.87,0-2.59,2.22-3.07,4.98-3.59,1.5-.27,3.11-.72,4.03-1.3v3Z"/>
      <path class="cls-2" d="m88.98,52.91h-.07c-1.19-1.67-2.83-2.66-5.39-2.66-4.1,0-7.54,3.21-7.54,8.71,0,5.09,3.14,8.74,7.72,8.74,2.53,0,3.93-1.06,5.22-2.73h.07v2.49c0,3.07-1.81,4.54-5.05,4.54-2.73,0-4.57-.75-4.85-2.7h-2.56c.31,3.04,2.9,4.88,7.48,4.88s7.75-2.18,7.75-6.83v-16.69h-2.76v2.25Zm-5.16,12.46c-3.28,0-5.02-2.53-5.02-6.38s1.67-6.42,4.98-6.42c3.75,0,5.39,2.39,5.39,6.25s-1.3,6.55-5.36,6.55Z"/>
      <path class="cls-2" d="m110.62,62.84h-2.7c-.61,2.39-2.32,3.62-4.88,3.62-3.55,0-5.5-2.73-5.7-6.32h13.65c0-5.84-2.83-9.93-8.12-9.93-5.02,0-8.36,4.16-8.36,9.29s3.14,9.29,8.53,9.29c3.99,0,6.76-2.15,7.58-5.94Zm-7.75-10.45c3.17,0,4.98,2.15,5.15,5.67h-10.62c.41-3.21,2.18-5.67,5.46-5.67Z"/>
      <path class="cls-2" d="m122.12,50.24c-2.56,0-4.34,1.06-5.6,2.73h-.07v-2.32h-2.76v17.65h2.76v-10.86c0-2.9,2.05-4.88,4.85-4.88,2.49,0,3.99,1.3,3.99,3.58v12.15h2.76v-12.39c0-3.65-2.25-5.67-5.94-5.67Z"/>
      <path class="cls-2" d="m138.92,68.17v-2.39h-.1c-.31.1-.92.24-1.47.24-1.13,0-1.78-.41-1.78-1.64v-11.47h3.41v-2.25h-3.41v-5.56h-2.76v5.56h-2.56v2.25h2.56v12.08c0,2.49,1.64,3.41,3.89,3.41.82,0,1.57-.1,2.22-.24Z"/>
      <path class="cls-2" d="m155.85,68.3v-17.65h-2.76v10.86c0,2.8-1.81,4.92-4.61,4.92-2.49,0-3.96-1.33-3.96-3.62v-12.15h-2.76v12.22c0,3.65,2.32,5.84,5.94,5.84,2.56,0,4.06-1.13,5.32-2.83h.07v2.42h2.76Z"/>
      <path class="cls-2" d="m167.7,50.45c-2.36,0-4.2,1.43-5.26,3.14h-.07v-2.94h-2.76v17.65h2.76v-9.8c0-3.31,2.39-5.36,5.12-5.36.55,0,.82.03,1.23.17h.1v-2.66c-.34-.14-.61-.2-1.13-.2Z"/>
      <path class="cls-2" d="m120.42,96.47c-.44,1.47-.99,3.79-.99,3.79h-.07s-.48-2.29-.85-3.72l-2.87-10.96h-2.9l-2.97,10.96c-.38,1.4-.89,3.72-.89,3.72h-.07s-.55-2.32-.96-3.79l-3.11-10.89h-2.97l5.6,17.65h2.87l2.97-10.69c.41-1.47.89-3.69.89-3.69h.07s.44,2.22.85,3.69l2.94,10.69h2.83l5.77-17.65h-2.87l-3.28,10.89Z"/>
      <rect class="cls-2" x="128.58" y="85.58" width="2.76" height="17.65"/>
      <rect class="cls-2" x="128.58" y="78.82" width="2.76" height="3.41"/>
      <path class="cls-2" d="m142.47,85.13c-5.02,0-8.36,4.16-8.36,9.29s3.14,9.29,8.53,9.29c3.99,0,6.76-2.15,7.58-5.94h-2.7c-.62,2.39-2.32,3.62-4.88,3.62-3.55,0-5.5-2.73-5.7-6.32h13.65c0-5.84-2.83-9.93-8.13-9.93Zm-5.46,7.85c.41-3.21,2.18-5.67,5.46-5.67s4.99,2.15,5.16,5.67h-10.62Z"/>
      <path class="cls-2" d="m161.72,85.17c-2.56,0-4.34,1.06-5.6,2.73h-.07v-2.32h-2.76v17.65h2.76v-10.86c0-2.9,2.05-4.88,4.85-4.88,2.49,0,3.99,1.3,3.99,3.58v12.15h2.76v-12.39c0-3.65-2.25-5.67-5.94-5.67Z"/>
    </g>
  </g>
</svg>