<svg viewBox="0 0 282.61 113.67" xmlns="http://www.w3.org/2000/svg"><g fill="#fff"><path d="m41.1 39.46v-38.3h-41.1c0 13.32 1.01 26.24 2.87 38.3z"/><path d="m41.1 51.52h-36.04c6.91 32.71 20.25 57.07 36.04 62.15z"/><path d="m53.16 39.46v-38.3h41.1c0 13.31-1.01 26.23-2.87 38.29h-38.23z"/><path d="m53.16 51.52h36.04c-6.91 32.71-20.25 57.07-36.04 62.15z"/><path d="m139.35 51.04c-2.43 0-4.74-.34-6.95-1.01s-4.4-1.72-6.56-3.15l1.3-8.38h.32c2.08 1.56 4.15 2.65 6.2 3.28 2.06.63 3.95.94 5.68.94 5.02 0 7.53-1.86 7.53-5.59 0-1.3-.36-2.47-1.07-3.51s-1.98-2.06-3.8-3.05l-6.04-3.38c-3.46-1.95-5.92-4.02-7.37-6.2-1.45-2.19-2.18-4.66-2.18-7.44 0-4.2 1.41-7.51 4.22-9.94 2.81-2.42 6.58-3.64 11.3-3.64 4.29 0 8.27 1.06 11.95 3.18l-1.3 8.05h-.32c-1.39-.95-3.01-1.68-4.87-2.18s-3.62-.75-5.26-.75c-4.37 0-6.56 1.67-6.56 5 0 1.21.38 2.32 1.14 3.31.76 1 2.24 2.1 4.45 3.31l5.33 2.92c3.33 1.82 5.76 3.82 7.27 6.01s2.27 4.8 2.27 7.83c0 4.5-1.52 8.02-4.55 10.55s-7.08 3.8-12.15 3.8z"/><path d="m169.61 49.88c-1.56-2.16-2.74-4.64-3.54-7.44-.8-2.79-1.2-5.96-1.2-9.51v-8.12h-5.72v-7.6h5.72v-9.68h8.96v9.68h7.66l-1.3 7.6h-6.36v7.4c0 3.68.51 6.88 1.53 9.61s2.44 5.26 4.25 7.6v.45h-10z"/><path d="m194.81 50.4c-3.16 0-5.67-.84-7.53-2.53s-2.79-4.05-2.79-7.08 1.08-5.5 3.25-7.27c2.16-1.77 5.09-2.84 8.77-3.18l9.09-.91v-.06c0-1.78-.49-3.12-1.46-4.03s-2.76-1.36-5.36-1.36c-1.95 0-3.93.23-5.94.68s-3.63.99-4.84 1.59h-.39l1.3-7.73c1.38-.56 3.09-1.05 5.13-1.46 2.03-.41 4.18-.62 6.43-.62 4.89 0 8.48 1.15 10.78 3.44 2.29 2.3 3.44 5.63 3.44 10v10.39c0 1.69.12 3.36.36 5 .24 1.65.64 3.03 1.2 4.16v.45h-8.51c-.26-.65-.5-1.46-.71-2.44-.22-.97-.35-1.87-.39-2.69h-.39c-.82 1.6-2.25 2.94-4.29 4.03-2.04 1.08-4.42 1.62-7.14 1.62zm-1.1-10.26c0 .95.31 1.75.94 2.4s1.66.97 3.08.97c2.25 0 4.12-.66 5.62-1.98 1.49-1.32 2.24-3.06 2.24-5.23v-.78l-6.88.78c-1.73.17-3 .55-3.8 1.14-.8.58-1.2 1.48-1.2 2.69z"/><path d="m246.77 49.88v-4.94h-.39c-.95 1.78-2.37 3.17-4.25 4.19s-4.02 1.53-6.4 1.53c-2.9 0-5.43-.71-7.6-2.14s-3.85-3.43-5.07-6.01c-1.21-2.58-1.82-5.57-1.82-8.99s.59-6.41 1.79-8.96c1.19-2.55 2.88-4.55 5.07-5.97 2.19-1.43 4.73-2.14 7.63-2.14 2.21 0 4.22.44 6.04 1.33s3.2 2.09 4.16 3.6h.45v-20.21h9.09v48.71zm-8.18-7.08c2.47 0 4.45-.85 5.94-2.57 1.49-1.71 2.24-3.95 2.24-6.72s-.75-5.05-2.24-6.72-3.47-2.5-5.94-2.5-4.49.82-5.94 2.47-2.18 3.92-2.18 6.82.72 5.06 2.18 6.72c1.45 1.67 3.43 2.5 5.94 2.5z"/><path d="m270.73 49.88c-1.56-2.16-2.74-4.64-3.54-7.44-.8-2.79-1.2-5.96-1.2-9.51v-8.12h-5.72v-7.6h5.72v-9.68h8.96v9.68h7.66l-1.3 7.6h-6.36v7.4c0 3.68.51 6.88 1.53 9.61s2.44 5.26 4.25 7.6v.45h-10z"/><path d="m147.47 111.94h-11.04c-1.08-2.42-2.25-5.42-3.51-8.99s-2.47-7.54-3.64-11.92c-1.17-4.37-2.19-8.93-3.05-13.67-.87-4.74-1.47-9.45-1.82-14.12h9.87c.35 4.33.92 8.83 1.72 13.51s1.74 9.23 2.83 13.67c1.08 4.44 2.21 8.52 3.38 12.24h.46l9.87-32.99h7.27l9.87 32.99h.46c1.17-3.72 2.27-7.8 3.31-12.24s1.95-8.99 2.73-13.67 1.34-9.18 1.69-13.51h9.74c-.35 4.68-.95 9.38-1.82 14.12s-1.88 9.3-3.05 13.67-2.38 8.35-3.64 11.92-2.43 6.57-3.51 8.99h-11.04l-8.25-27.41h-.46l-8.38 27.41z"/><path d="m198.9 74.08c-1.73 0-3.14-.54-4.22-1.62s-1.62-2.42-1.62-4.03.54-2.99 1.62-4.03 2.49-1.56 4.22-1.56 3.14.52 4.22 1.56 1.62 2.38 1.62 4.03-.54 2.94-1.62 4.03-2.49 1.62-4.22 1.62zm-4.55 37.86v-32.67h9.09v32.67z"/><path d="m227.22 112.72c-3.55 0-6.61-.69-9.19-2.08-2.58-1.38-4.56-3.35-5.94-5.91-1.39-2.55-2.08-5.54-2.08-8.96 0-3.59.72-6.68 2.18-9.25 1.45-2.58 3.45-4.56 6.01-5.94s5.46-2.08 8.7-2.08c4.81 0 8.55 1.47 11.24 4.42 2.68 2.94 4.03 7.01 4.03 12.21v2.01l-22.47 2.53c.61 1.99 1.69 3.4 3.25 4.22s3.46 1.23 5.72 1.23c2.12 0 4.24-.28 6.36-.84s3.72-1.19 4.81-1.88h.45l-1.3 7.79c-1.21.65-2.9 1.23-5.07 1.75s-4.39.78-6.69.78zm-.52-26.95c-2.04 0-3.71.62-5.03 1.85s-2.13 3.08-2.44 5.55l13.9-1.56c-.3-2.03-1.02-3.52-2.14-4.45-1.13-.93-2.55-1.4-4.29-1.4z"/><path d="m248.45 111.94v-32.67h8.25v5.52h.39c.82-1.9 2.18-3.43 4.06-4.58s4.08-1.72 6.59-1.72c3.81 0 6.81 1.27 8.99 3.8 2.19 2.53 3.28 6.05 3.28 10.55v19.09h-9.09v-17.92c0-5.11-2.1-7.66-6.3-7.66-2.12 0-3.83.76-5.13 2.27-1.3 1.52-1.95 3.53-1.95 6.04v17.27h-9.09z"/></g></svg>