<?xml version="1.0" encoding="utf-8"?>
<!-- Generator: Adobe Illustrator 26.1.0, SVG Export Plug-In . SVG Version: 6.00 Build 0)  -->
<svg version="1.1" id="Layer_1" xmlns="http://www.w3.org/2000/svg" xmlns:xlink="http://www.w3.org/1999/xlink" x="0px" y="0px"
	 viewBox="0 0 413.6 111.1" style="enable-background:new 0 0 413.6 111.1;" xml:space="preserve">
<style type="text/css">
	.st0{fill:#FFFFFF;}
</style>
<g>
	<path class="st0" d="M388,84.2h2.4V91c0,1.8,1,3.2,3.1,3.2c1.1,0,2.2-0.7,2.2-0.7l-0.5-1.1c0,0-0.8,0.5-1.6,0.5
		c-1.5,0-1.9-1-1.9-2.3v-6.6h3.7V83h-3.7v-3.5h-1.2V83H388V84.2z M384,82.8c-2.3,0-3.2,2.1-3.2,2.1V83h-1.1V94h1.2v-7.9
		c0,0,0.9-2.1,2.8-2.1c1,0,1.5,0.3,1.5,0.3l0.5-1.2C385.7,83.1,385.1,82.8,384,82.8 M370.2,93.1c-2.7,0-4.3-2.1-4.3-4.5
		s1.5-4.5,4.3-4.5s4.3,2.1,4.3,4.5S372.9,93.1,370.2,93.1 M370.2,82.8c-3.3,0-5.6,2.6-5.6,5.8s2.3,5.8,5.6,5.8s5.6-2.6,5.6-5.8
		S373.4,82.8,370.2,82.8 M352.2,86.5c0,0,1.2-2.5,3.9-2.5c2.5,0,4.1,2,4.1,4.5s-1.7,4.5-4.1,4.5c-2.8,0-3.9-2.5-3.9-2.5V86.5z
		 M350.9,83.1v16.5h1.2v-7.3c0.3,0.4,1.5,2.1,4,2.1c3,0,5.4-2.3,5.4-5.8s-2.4-5.8-5.4-5.8c-2.8,0-4.1,2.3-4.1,2.3v-2L350.9,83.1
		L350.9,83.1z M345.1,89.8c0,2-1.7,3.3-3.8,3.3c-3,0-4.1-2.9-4.1-2.9l-1.1,0.7c0,0,1.5,3.4,5.2,3.4c2.8,0,5-1.8,5-4.5
		c0-2.3-1.4-3.6-4-4.7c-2.4-1.1-4.3-2-4.3-4c0-1.7,1.3-2.9,3.5-2.9c2.4,0,3.6,1.9,3.6,1.9l1-0.7c0,0-1.6-2.4-4.6-2.4
		c-3.1,0-4.7,2.3-4.7,4.2c0,2.5,2,3.8,4.5,4.9C343.3,86.9,345.1,87.7,345.1,89.8 M322.2,90.5c0,0-1.2,2.5-3.9,2.5
		c-2.5,0-4.1-2-4.1-4.5s1.7-4.5,4.1-4.5c2.8,0,3.9,2.5,3.9,2.5V90.5z M323.4,94V75.8h-1.2v9.1c-0.3-0.4-1.6-2.1-4-2.1
		c-3,0-5.5,2.3-5.5,5.8s2.4,5.8,5.5,5.8c2.8,0,4.1-2.3,4.1-2.3v2L323.4,94L323.4,94z M304.7,82.8c-2.7,0-3.7,2.3-3.7,2.3v-2h-1.1V94
		h1.2v-7.6c0,0,1-2.4,3.4-2.4c1.8,0,3.1,1,3.1,3.2V94h1.2v-7C308.8,84,306.8,82.8,304.7,82.8 M290.1,94.3c2.7,0,3.7-2.2,3.7-2.2V94
		h1.1V83.1h-1.2v7.6c0,0-1,2.4-3.4,2.4c-1.8,0-3.1-1-3.1-3.2v-6.8h-1.2v7C286,93,288,94.3,290.1,94.3 M266.6,84.2h2.4V91
		c0,1.8,1,3.2,3.1,3.2c1.1,0,2.2-0.7,2.2-0.7l-0.5-1.1c0,0-0.8,0.5-1.6,0.5c-1.5,0-1.9-1-1.9-2.3v-6.6h3.7V83h-3.7v-3.5H269V83h-2.4
		L266.6,84.2L266.6,84.2z M254.7,91.9c0,0,1.4,2.3,4.7,2.3c2.1,0,4.1-1.1,4.1-3.1c0-2-1.6-2.7-3.7-3.1c-1.9-0.4-3.3-0.8-3.3-2.1
		c0-1.1,1.1-1.9,2.6-1.9c2,0,3.1,1.2,3.1,1.2l0.8-0.9c0,0-1.3-1.5-3.9-1.5c-2.4,0-3.9,1.5-3.9,3.1c0,1.8,1.5,2.7,3.9,3.3
		c1.7,0.4,3,0.8,3,2c0,1.4-1.7,1.9-2.9,1.9c-2.6,0-3.7-1.9-3.7-1.9L254.7,91.9z M246.5,82.8c-2.7,0-3.7,2.3-3.7,2.3v-2h-1.1V94h1.2
		v-7.6c0,0,1-2.4,3.4-2.4c1.8,0,3.1,1,3.1,3.2V94h1.2v-7C250.6,84,248.5,82.8,246.5,82.8 M228.2,87.9c0.1-1.2,1.1-3.9,4.1-3.9
		c2.9,0,4,2.6,4,3.9H228.2z M232.3,82.8c-3.3,0-5.4,2.7-5.4,5.8c0,3.1,2.4,5.8,5.6,5.8c1.8,0,3.5-1,4.6-2.2l-0.8-0.9
		c-0.7,0.9-2.1,1.9-3.7,1.9c-2.9,0-4.3-2.4-4.4-4h9.4c0-0.3,0-0.3,0-0.5C237.6,85.2,235.2,82.8,232.3,82.8 M221,79.5
		c0,0.5,0.4,1,1,1s1-0.4,1-1s-0.4-1-1-1S221,79,221,79.5 M221.4,94h1.2V83.1h-1.2V94z M205.2,92.8V78.3h3.1c4.4,0,7.2,2.9,7.2,7.2
		s-2.8,7.2-7.2,7.2H205.2z M203.9,77.2V94h4.6c4.9,0,8.3-3.6,8.3-8.4s-3.5-8.4-8.3-8.4H203.9z M191.7,82.8c-2.3,0-3.2,2.1-3.2,2.1
		V83h-1.1V94h1.2v-7.9c0,0,0.9-2.1,2.8-2.1c1,0,1.5,0.3,1.5,0.3l0.5-1.2C193.4,83.1,192.7,82.8,191.7,82.8 M174,87.9
		c0.1-1.2,1.1-3.9,4.1-3.9c2.9,0,4,2.6,4,3.9H174z M178.1,82.8c-3.3,0-5.4,2.7-5.4,5.8c0,3.1,2.4,5.8,5.6,5.8c1.8,0,3.5-1,4.6-2.2
		l-0.8-0.9c-0.7,0.9-2.1,1.9-3.7,1.9c-2.9,0-4.3-2.4-4.4-4h9.4c0-0.3,0-0.3,0-0.5C183.4,85.2,181,82.8,178.1,82.8 M161,84.8v-9h-1.2
		V94h1.2v-7.6c0,0,1-2.4,3.4-2.4c1.8,0,3.1,1,3.1,3.2V94h1.2v-7c0-3-2.1-4.2-4.1-4.2C162,82.8,161,84.8,161,84.8 M151.1,93.1
		c-2.6,0-4.3-2.1-4.3-4.5c0-2.4,1.7-4.5,4.3-4.5c2.3,0,3.5,1.6,3.5,1.6l0.9-0.8c0,0-1.5-2.1-4.4-2.1c-3.3,0-5.6,2.6-5.6,5.8
		s2.4,5.8,5.6,5.8c3,0,4.5-2.2,4.5-2.2l-0.9-0.8C154.8,91.2,153.6,93.1,151.1,93.1 M139.6,79.5c0,0.5,0.4,1,1,1s1-0.4,1-1
		s-0.4-1-1-1S139.6,79,139.6,79.5 M139.9,94h1.2V83.1h-1.2V94z M133.1,94h1.2V75.8h-1.2L133.1,94z M121.1,84.2h2.4V91
		c0,1.8,1,3.2,3.1,3.2c1.1,0,2.2-0.7,2.2-0.7l-0.5-1.1c0,0-0.8,0.5-1.6,0.5c-1.5,0-1.9-1-1.9-2.3v-6.6h3.7V83h-3.7v-3.5h-1.2V83
		h-2.4V84.2z M113.2,82.8c-2.7,0-3.7,2.3-3.7,2.3v-2h-1.1V94h1.2v-7.6c0,0,1-2.4,3.4-2.4c1.8,0,3.1,1,3.1,3.2V94h1.2v-7
		C117.3,84,115.2,82.8,113.2,82.8 M94.9,87.9c0.1-1.2,1.1-3.9,4.1-3.9c2.9,0,4,2.6,4,3.9H94.9z M99,82.8c-3.3,0-5.4,2.7-5.4,5.8
		c0,3.1,2.3,5.8,5.6,5.8c1.8,0,3.5-1,4.6-2.2l-0.8-0.9c-0.7,0.9-2.1,1.9-3.7,1.9c-2.9,0-4.3-2.4-4.4-4h9.4c0-0.3,0-0.3,0-0.5
		C104.3,85.2,101.9,82.8,99,82.8 M84.3,84.2h2.3V94h1.2v-9.8h2.9V83h-2.9v-4c0-1.3,0.5-2.3,1.9-2.3c0.7,0,1.4,0.4,1.4,0.4l0.5-1.1
		c-0.9-0.5-1.4-0.5-2.1-0.5c-1.5,0-3,1.1-3,3.2V83h-2.3V84.2z M75.1,84.2h2.3V94h1.2v-9.8h2.9V83h-2.9v-4c0-1.3,0.5-2.3,1.9-2.3
		c0.7,0,1.4,0.4,1.4,0.4l0.5-1.1c-0.9-0.5-1.4-0.5-2.1-0.5c-1.5,0-3,1.1-3,3.2V83h-2.3V84.2z M68,79.5c0,0.5,0.4,1,1,1s1-0.4,1-1
		s-0.4-1-1-1S68,79,68,79.5 M63.7,79.5c0,0.5,0.4,1,1,1s1-0.4,1-1s-0.4-1-1-1S63.7,79,63.7,79.5 M66.8,93.1c-2.7,0-4.3-2.1-4.3-4.5
		s1.5-4.5,4.3-4.5s4.3,2.1,4.3,4.5S69.5,93.1,66.8,93.1 M66.8,82.8c-3.3,0-5.6,2.6-5.6,5.8s2.3,5.8,5.6,5.8c3.3,0,5.6-2.6,5.6-5.8
		S70.1,82.8,66.8,82.8"/>
	<path class="st0" d="M209.2,67.5l1.1,0.4l2-5.6l-1.1-0.4L209.2,67.5z M206.9,52.8c-2.3,0-3.2,2.1-3.2,2.1V53h-1.1V64h1.2v-7.9
		c0,0,0.9-2.1,2.8-2.1c1,0,1.5,0.3,1.5,0.3l0.5-1.2C208.6,53,207.9,52.8,206.9,52.8 M192.8,64.3c2.7,0,3.7-2.2,3.7-2.2V64h1.1V53
		h-1.2v7.6c0,0-1,2.4-3.4,2.4c-1.8,0-3.1-1-3.1-3.2V53h-1.2v7C188.7,63,190.7,64.3,192.8,64.3 M177.1,54.2h2.4V61
		c0,1.8,1,3.2,3.1,3.2c1.1,0,2.2-0.7,2.2-0.7l-0.5-1.1c0,0-0.8,0.5-1.6,0.5c-1.5,0-1.9-1-1.9-2.3v-6.6h3.7V53h-3.7v-3.5h-1.2V53
		h-2.4V54.2z M171.6,64h1.2V45.8h-1.2L171.6,64z M161.4,64.3c2.7,0,3.7-2.2,3.7-2.2V64h1.1V53H165v7.6c0,0-1,2.4-3.4,2.4
		c-1.8,0-3.1-1-3.1-3.2V53h-1.2v7C157.3,63,159.3,64.3,161.4,64.3 M143.8,47.2h-1.2V64h1.2v-8.2l8.5,8.2h1.8l-8.8-8.6l7.6-8.2h-1.6
		l-7.5,8.1L143.8,47.2L143.8,47.2z M126.7,67.5l1.1,0.4l2-5.6l-1.1-0.4L126.7,67.5z M116.1,54.2h2.4V61c0,1.8,1,3.2,3.1,3.2
		c1.1,0,2.2-0.7,2.2-0.7l-0.5-1.1c0,0-0.8,0.5-1.6,0.5c-1.5,0-1.9-1-1.9-2.3v-6.6h3.7V53h-3.7v-3.5h-1.2V53h-2.4
		C116.1,53,116.1,54.2,116.1,54.2z M104.2,62c0,0,1.4,2.3,4.7,2.3c2.1,0,4.2-1.1,4.2-3.1c0-2-1.6-2.7-3.7-3.1
		c-1.8-0.4-3.3-0.8-3.3-2.1c0-1.1,1.1-1.9,2.6-1.9c2,0,3.1,1.2,3.1,1.2l0.8-0.9c0,0-1.3-1.5-3.9-1.5c-2.4,0-3.9,1.5-3.9,3.1
		c0,1.8,1.5,2.7,3.9,3.3c1.7,0.4,3.1,0.8,3.1,2c0,1.4-1.7,1.9-2.9,1.9c-2.6,0-3.7-1.9-3.7-1.9L104.2,62z M96,52.8
		c-2.7,0-3.7,2.3-3.7,2.3v-2h-1.1V64h1.2v-7.6c0,0,1-2.5,3.4-2.5c1.8,0,3.1,1,3.1,3.2V64h1.2v-7C100.1,54,98.1,52.8,96,52.8
		 M81.4,64.3c2.7,0,3.7-2.2,3.7-2.2V64h1.1V53H85v7.6c0,0-1,2.4-3.4,2.4c-1.8,0-3.1-1-3.1-3.2V53h-1.2v7
		C77.2,63,79.3,64.3,81.4,64.3 M63.8,47.2h-1.2V64h1.2v-8.2l8.5,8.2h1.8l-8.8-8.6l7.6-8.2h-1.6l-7.5,8.1L63.8,47.2L63.8,47.2z"/>
	<path class="st0" d="M273.9,22.6c-2.4,0-3.3,2.1-3.3,2.1s-0.7-2.1-3.5-2.1c-2.3,0-3.1,1.9-3.1,1.9v-1.6h-1.9V34h2v-7.7
		c0,0,0.7-1.8,2.4-1.8c1.4,0,2.4,0.9,2.4,2.7V34h2v-7.7c0,0,0.7-1.8,2.4-1.8c1.4,0,2.4,0.9,2.4,2.7V34h2v-7.1
		C277.7,24.1,276.2,22.6,273.9,22.6 M252.4,34.3c2.4,0,3.4-2,3.4-2V34h1.9V22.9h-2v7.7c0,0-0.9,1.8-2.8,1.8c-1.5,0-2.7-0.8-2.7-2.7
		v-6.8h-2V30C248.2,32.8,250.2,34.3,252.4,34.3 M240.9,19.4c0,0.7,0.6,1.4,1.4,1.4c0.7,0,1.4-0.6,1.4-1.4c0-0.7-0.6-1.4-1.4-1.4
		C241.6,18,240.9,18.6,240.9,19.4 M241.3,34h2V22.9h-2V34z M236.3,22.6c-2.1,0-3.1,2-3.1,2v-1.7h-1.9V34h2v-7.6c0,0,0.8-1.9,2.5-1.9
		c0.8,0,1.3,0.2,1.3,0.2l0.7-1.8C237.9,22.9,237.2,22.6,236.3,22.6 M218.7,27.5c0.1-1.1,1.1-3,3.5-3c2.2,0,3.4,1.8,3.4,3H218.7z
		 M222.2,22.6c-3.3,0-5.5,2.6-5.5,5.8c0,3.3,2.4,5.8,5.8,5.8c2.9,0,4.6-2.2,4.6-2.2l-1.3-1.3c0,0-1.1,1.6-3.3,1.6
		c-2.1,0-3.7-1.6-3.8-3.2h8.9c0-0.3,0-0.4,0-0.6C227.6,24.9,225.3,22.6,222.2,22.6 M206,24.7h2.2v6.1c0,2.5,1.8,3.5,3.3,3.5
		c0.6,0,1.3-0.1,2.3-0.7l-0.7-1.7c0,0-0.6,0.5-1.3,0.5c-1.1,0-1.6-0.6-1.6-1.7v-6h3.5v-1.8h-3.5v-3.4h-2v3.4H206L206,24.7L206,24.7z
		 M193.9,32c0,0,1.6,2.3,4.8,2.3c2.1,0,4.4-1.1,4.4-3.2c0-2.3-1.8-3-3.9-3.5c-1.8-0.4-2.7-0.8-2.7-1.7c0-0.7,0.7-1.4,2.1-1.4
		c1.7,0,2.8,1.2,2.8,1.2l1.3-1.4c0,0-1.5-1.7-4.1-1.7c-2.5,0-4.1,1.6-4.1,3.2c0,2.1,1.7,3,4.1,3.5c1.7,0.3,2.5,0.8,2.5,1.8
		c0,0.9-1.3,1.4-2.4,1.4c-2.2,0-3.4-1.8-3.4-1.8L193.9,32z M187.4,19.4c0,0.7,0.6,1.4,1.4,1.4s1.4-0.6,1.4-1.4
		c0-0.7-0.6-1.4-1.4-1.4S187.4,18.6,187.4,19.4 M187.7,34h2V22.9h-2V34z M178.7,22.6c-2.4,0-3.4,1.9-3.4,1.9v-1.6h-1.9V34h2v-7.6
		c0,0,1-1.9,2.8-1.9c1.5,0,2.7,0.8,2.7,2.7V34h2v-7.1C182.9,24.1,180.9,22.6,178.7,22.6 M166.1,19.4c0,0.7,0.6,1.4,1.4,1.4
		c0.7,0,1.4-0.6,1.4-1.4c0-0.7-0.6-1.4-1.4-1.4C166.8,18,166.1,18.6,166.1,19.4 M166.5,34h2V22.9h-2V34z M157.8,22.6
		c-2.4,0-3.3,2.1-3.3,2.1s-0.7-2.1-3.5-2.1c-2.3,0-3.1,1.9-3.1,1.9v-1.6h-1.9V34h2v-7.7c0,0,0.7-1.8,2.4-1.8c1.4,0,2.4,0.9,2.4,2.7
		V34h2v-7.7c0,0,0.7-1.8,2.4-1.8c1.4,0,2.4,0.9,2.4,2.7V34h2v-7.1C161.6,24.1,160.1,22.6,157.8,22.6 M133,32c0,0,1.6,2.3,4.8,2.3
		c2.1,0,4.4-1.1,4.4-3.2c0-2.3-1.8-3-3.9-3.5c-1.8-0.4-2.7-0.8-2.7-1.7c0-0.7,0.7-1.4,2.1-1.4c1.7,0,2.8,1.2,2.8,1.2l1.3-1.4
		c0,0-1.5-1.7-4.1-1.7c-2.5,0-4.1,1.6-4.1,3.2c0,2.1,1.7,3,4.1,3.5c1.7,0.3,2.5,0.8,2.5,1.8c0,0.9-1.3,1.4-2.4,1.4
		c-2.2,0-3.4-1.8-3.4-1.8L133,32z M121.1,27.5c0.1-1.1,1.1-3,3.5-3c2.2,0,3.4,1.8,3.4,3H121.1z M124.6,22.6c-3.3,0-5.5,2.6-5.5,5.8
		c0,3.3,2.4,5.8,5.8,5.8c2.9,0,4.6-2.2,4.6-2.2l-1.3-1.3c0,0-1.2,1.6-3.3,1.6c-2.1,0-3.7-1.6-3.8-3.2h9c0-0.3,0-0.4,0-0.6
		C130,24.9,127.7,22.6,124.6,22.6 M112.8,30.5c0,0-1.1,1.9-3.3,1.9c-2.3,0-3.7-1.8-3.7-4s1.5-4,3.7-4s3.3,1.9,3.3,1.9V30.5z
		 M109.3,22.6c-3,0-5.4,2.6-5.4,5.8s2.4,5.8,5.4,5.8c2.7,0,3.7-1.9,3.7-1.9V34h1.8V15.9h-2v8.4C112.8,24.3,111.7,22.6,109.3,22.6
		 M96,22.6c-2.4,0-3.4,1.9-3.4,1.9v-1.6h-1.9V34h2v-7.6c0,0,1-1.9,2.8-1.9c1.5,0,2.7,0.8,2.7,2.7V34h2v-7.1
		C100.2,24.1,98.2,22.6,96,22.6 M80.9,34.3c2.4,0,3.4-2,3.4-2V34h1.9V22.9h-2v7.7c0,0-0.9,1.8-2.8,1.8c-1.5,0-2.7-0.8-2.7-2.7v-6.8
		h-2V30C76.7,32.8,78.7,34.3,80.9,34.3 M64.2,24.4v-5.3H67c1.9,0,3.1,1,3.1,2.7s-1.2,2.7-3.1,2.7L64.2,24.4L64.2,24.4z M67.5,32.1
		h-3.2v-5.8h3.2c2.4,0,3.5,1.3,3.5,2.9S69.9,32.1,67.5,32.1 M62.2,34h5.3c3.3,0,5.5-1.9,5.5-4.8c0-3.3-2.6-4.1-2.8-4.1
		c0.2,0,1.9-1,1.9-3.3c0-2.8-1.9-4.6-5.4-4.6h-4.4V34z"/>
</g>
<polygon class="st0" points="43.2,22.7 43.2,17 17,17 19.6,22.7 "/>
<polygon class="st0" points="24.9,34 43.2,34 43.2,28.4 22.3,28.4 "/>
</svg>
